<svg xmlns="http://www.w3.org/2000/svg" viewBox="0 0 339.25 211.18"><defs><style>.cls-1{fill:#1d71b8;}.cls-2{fill:#55dbff;}.cls-3{fill:#f6f6f6;}.cls-4{fill:#dadada;}.cls-5{fill:#ffed00;}.cls-12,.cls-14,.cls-15,.cls-16,.cls-18,.cls-6{fill:none;}.cls-7{fill:#575756;}.cls-8{fill:#ededed;}.cls-9{fill:#1d1d1b;}.cls-10{fill:#f7ff4a;}.cls-11{fill:#ffe65f;}.cls-12{stroke:#1d1d1b;stroke-width:0.25px;}.cls-12,.cls-14,.cls-15,.cls-16,.cls-18{stroke-miterlimit:10;}.cls-13{fill:#fff;}.cls-14{stroke:#ededed;}.cls-15,.cls-18{stroke:#fff;}.cls-15,.cls-16{stroke-width:0.75px;}.cls-16{stroke:#e30613;}.cls-17{fill:#e30613;}.cls-18{stroke-width:2px;}</style></defs><g id="Layer_2" data-name="Layer 2"><g id="Layer_1-2" data-name="Layer 1"><path class="cls-1" d="M337.07,197c-.24,2.56-7.12,4.63-17.48,6.66-35.63,6.42-96.51,7.5-132.87,7.5-15.1,0-26-.18-29.07-.24l-.65,0c-22.27-.4-35.31-.28-43.43-.34-13.33-.1-22.71-.84-39.86-2.19-1.77-.13-19.42-1.58-42.23-5.81C30,202.33,16,199.67,11,196.74c6.94-2.53,12-4,14.09-4.66,12.53-3.71,28.3-7.29,73.5-10.31,32.54-2.19,58.25-3.92,94.3-2.5,13.53.52,32.51,2.34,69.9,5.92,30.55,2.94,52.61,5,68,6.64l.41.19C331.77,192.23,337.3,194.67,337.07,197Z"/><path class="cls-2" d="M338.13,162c-3.86,14.7-16.89,25.25-14.3,28.34,1,1.17,3.09,0,7,1.48-15.42-1.6-37.48-3.7-68-6.64-37.39-3.58-56.37-5.4-69.9-5.92-36.05-1.42-61.76.31-94.3,2.5-45.2,3-61,6.6-73.5,10.31C23,192.7,18,194.21,11,196.74c-1.12-.62-1.8-1.3-1.77-2,.12-1.76,5.39-2.09,5.83-5,.35-2.19-2.42-3.85-5.83-7.22-4.82-4.75-10.47-12.5-9-15S9.15,170,12.42,167c4.38-3.89-2.8-18-6.36-29.44-9.32-30.13,1.39-59,3.71-65,1.56-3.89,15-36.55,45.55-48.89C70.06,17.74,86.45,17.4,106.69,17c11.33-.22,18.48.46,31.13-1.61C151,13.23,156.56,10.24,167.59,7c10.83-3.15,32.84-8.37,58.26-6.67a139.82,139.82,0,0,1,47.4,12.23c18.07,8.17,22.95,15.12,24.63,17.77,3.59,5.65,4.91,13.68,7.41,29.45,3.44,21.52,2.12,24.85,5.83,33.89,4.2,10.22,7.15,9.14,14.3,21.12C331.42,124.85,342.86,144.05,338.13,162Z"/><rect class="cls-3" x="10.73" y="96.56" width="98" height="61" rx="12"/><rect class="cls-4" x="24.73" y="130.56" width="70" height="3" rx="1.13"/><rect class="cls-4" x="24.73" y="139.56" width="70" height="3" rx="1.13"/><rect class="cls-4" x="24.73" y="148.56" width="47" height="3" rx="1.13"/><rect class="cls-4" x="46.73" y="110.56" width="46" height="7" rx="1.26"/><ellipse class="cls-4" cx="31.23" cy="113.56" rx="10.5" ry="10"/><path class="cls-5" d="M36.19,115.73l0-.07h0l.5-2.15h0l.48-2.1c-1-.11-2,.11-2.27-.13a.12.12,0,0,1-.06-.1c0-.2.24-.29.62-.88a8.1,8.1,0,0,0,.79-2.42c.36-1.31.52-1.66.31-1.88a.81.81,0,0,0-.9,0c-.58.28-.76,1-1.06,1.56a6.67,6.67,0,0,1-2.38,2.41,9.56,9.56,0,0,1-4.43,1.65,11.1,11.1,0,0,1-4.22-.11c-.37,2.15-.75,4.3-1.12,6.46a16.14,16.14,0,0,1,4.09.54c1.25.34,1.87.69,3.41,1.09a22.14,22.14,0,0,0,2.65.5h0l.36,0A9.93,9.93,0,0,1,35.2,120l.49-2.12Z"/><path class="cls-6" d="M35.18,120.12a.43.43,0,0,1,0-.12"/><path class="cls-6" d="M37.2,111.39l0-.13"/><path class="cls-5" d="M37.66,113.56H33.75a.92.92,0,0,1-.94-1h0a1.13,1.13,0,0,1,1.1-1h3.91a.92.92,0,0,1,.94,1h0A1.12,1.12,0,0,1,37.66,113.56Z"/><path class="cls-5" d="M37.18,119.56h-3.9a.91.91,0,0,1-.94-1h0a1.12,1.12,0,0,1,1.1-1h3.91a.92.92,0,0,1,.94,1h0A1.13,1.13,0,0,1,37.18,119.56Z"/><path class="cls-5" d="M37.37,117.56H33.46a.92.92,0,0,1-.94-1h0a1.12,1.12,0,0,1,1.1-1h3.91a.92.92,0,0,1,.94,1h0A1.13,1.13,0,0,1,37.37,117.56Z"/><path class="cls-5" d="M37.54,115.56H33.63a.92.92,0,0,1-.94-1h0a1.14,1.14,0,0,1,1.11-1h3.9a.91.91,0,0,1,.94,1h0A1.12,1.12,0,0,1,37.54,115.56Z"/><rect class="cls-3" x="221.73" y="98.56" width="98" height="61" rx="12"/><rect class="cls-4" x="234.73" y="132.56" width="70" height="3" rx="1.13"/><rect class="cls-4" x="234.73" y="141.56" width="70" height="3" rx="1.13"/><rect class="cls-4" x="234.73" y="150.56" width="47" height="3" rx="1.13"/><rect class="cls-4" x="256.73" y="112.56" width="46" height="7" rx="1.26"/><ellipse class="cls-4" cx="242.23" cy="115.56" rx="10.5" ry="10"/><path class="cls-5" d="M245.4,114.22v.08h0l.26,2.18h0l.25,2.13c-.75,0-1.53-.26-1.74,0a.14.14,0,0,0-.06.1c0,.19.17.3.43.92a10.7,10.7,0,0,1,.47,2.47c.2,1.33.3,1.7.12,1.9s-.47.14-.69,0c-.42-.32-.52-1-.72-1.64a6.59,6.59,0,0,0-1.68-2.58,7.44,7.44,0,0,0-6.52-2.18c-.16-2.17-.33-4.35-.49-6.53a9.69,9.69,0,0,0,3.16-.24c1-.23,1.47-.54,2.67-.82a12.31,12.31,0,0,1,2-.3h.31a6.42,6.42,0,0,0,1.66.25l.25,2.14Z"/><path class="cls-6" d="M244.88,109.77a.57.57,0,0,0,0,.13"/><path class="cls-6" d="M245.92,118.63a.62.62,0,0,1,0,.13"/><path class="cls-5" d="M246.55,116.59l-3.32-.34c-.47,0-.86.42-.86,1h0a1.17,1.17,0,0,0,.88,1.21l3.31.34c.47,0,.86-.42.86-1h0A1.17,1.17,0,0,0,246.55,116.59Z"/><path class="cls-5" d="M246.56,110l-3.31-.34c-.47,0-.86.41-.86,1h0a1.17,1.17,0,0,0,.87,1.21l3.31.33c.48,0,.87-.41.86-1h0A1.15,1.15,0,0,0,246.56,110Z"/><path class="cls-5" d="M246.57,112.19l-3.31-.34c-.47,0-.86.41-.86,1h0a1.16,1.16,0,0,0,.87,1.2l3.32.34c.47,0,.86-.41.86-1h0A1.16,1.16,0,0,0,246.57,112.19Z"/><path class="cls-5" d="M246.59,114.34l-3.32-.34c-.47,0-.86.42-.86,1h0a1.17,1.17,0,0,0,.88,1.21l3.31.34c.47,0,.86-.41.86-1h0A1.17,1.17,0,0,0,246.59,114.34Z"/><rect class="cls-3" x="114.73" y="113.56" width="98" height="61" rx="12"/><rect class="cls-4" x="128.73" y="147.56" width="70" height="3" rx="1.13"/><rect class="cls-4" x="128.73" y="156.56" width="70" height="3" rx="1.13"/><rect class="cls-4" x="127.73" y="165.56" width="47" height="3" rx="1.13"/><rect class="cls-4" x="149.73" y="127.56" width="46" height="7" rx="1.26"/><ellipse class="cls-4" cx="135.23" cy="130.56" rx="10.5" ry="10"/><path class="cls-5" d="M140.5,133.73v-.07h0l.5-2.15h0l.48-2.1c-1-.11-2,.11-2.27-.13a.15.15,0,0,1-.06-.1c0-.2.24-.29.63-.88a8.77,8.77,0,0,0,.79-2.42c.36-1.31.52-1.66.3-1.88a.81.81,0,0,0-.9,0c-.57.28-.76,1-1.06,1.56a6.67,6.67,0,0,1-2.38,2.41,9.56,9.56,0,0,1-4.43,1.65,11.1,11.1,0,0,1-4.22-.11c-.37,2.15-.75,4.31-1.12,6.46a16.06,16.06,0,0,1,4.09.55c1.26.33,1.87.68,3.42,1.08a21.67,21.67,0,0,0,2.64.5h0l.37,0a10.58,10.58,0,0,1,2.18-.08l.49-2.12Z"/><path class="cls-6" d="M139.48,138.12l0-.12"/><path class="cls-6" d="M141.5,129.39a.31.31,0,0,0,0-.13"/><path class="cls-5" d="M142,131.56h-3.91a.92.92,0,0,1-.94-1h0a1.14,1.14,0,0,1,1.11-1h3.9a.91.91,0,0,1,.94,1h0A1.12,1.12,0,0,1,142,131.56Z"/><path class="cls-5" d="M141.49,137.56h-3.91a.92.92,0,0,1-.94-1h0a1.13,1.13,0,0,1,1.1-1h3.91a.92.92,0,0,1,.94,1h0A1.12,1.12,0,0,1,141.49,137.56Z"/><path class="cls-5" d="M141.67,135.56h-3.91a.92.92,0,0,1-.94-1h0a1.13,1.13,0,0,1,1.11-1h3.9a.92.92,0,0,1,.94,1h0A1.12,1.12,0,0,1,141.67,135.56Z"/><path class="cls-5" d="M141.84,133.56h-3.9a.92.92,0,0,1-.94-1h0a1.12,1.12,0,0,1,1.1-1H142a.92.92,0,0,1,.94,1h0A1.13,1.13,0,0,1,141.84,133.56Z"/><rect class="cls-7" x="79.73" y="24.56" width="179" height="65" rx="8.88"/><rect class="cls-8" x="86.73" y="26.56" width="165" height="61" rx="8.88"/><path class="cls-9" d="M192.24,80.51a16.88,16.88,0,0,0-2.46-4,17.28,17.28,0,0,0-2.47-2.42l-9.73-2.65A21.1,21.1,0,0,0,180.42,67a24.45,24.45,0,0,0,2-8.44,38.7,38.7,0,0,0-1.85-14.48c-1.12-3.83-1.68-5.75-3.33-7.84a17.13,17.13,0,0,0-9-5.78c-1.79-.47-6.3-1.65-10.59.6-4.09,2.15-5.63,6.18-6.77,9.16A22.23,22.23,0,0,0,149,49.16c.05,2,.4,3.26-.37,5.06a7.53,7.53,0,0,1-6.48,4.58,8.23,8.23,0,0,1-2.51-.23,7,7,0,0,0,3.57,1.56c2.49.28,4.43-1.09,4.56-.84s-1.35,1.31-3,1.81l-.49.13a7.14,7.14,0,0,1-2.71.11A5,5,0,0,0,143.84,65a5.14,5.14,0,0,0,3.94.6,3.23,3.23,0,0,1-1.48,1.69c-.8.39-1.5.2-1.6.48S145.82,69,147,69.66a35,35,0,0,0,4.8,2.29l-8,2.66a16.22,16.22,0,0,0-5.59,10.73l4,2.22h49l2.47-3.89C193.23,82.62,192.73,81.57,192.24,80.51Zm-23.89,6.1-7-.12q-1.49-8.44-3-16.89a14.55,14.55,0,0,0,.74-2.65,15.61,15.61,0,0,0,.25-2.53l-.68-.71A10.14,10.14,0,0,0,163.91,66c1.8.18,3.33-.26,6-1.18.2.08.41.16.63.23a9.48,9.48,0,0,0,3.08.48l.13,3Q171.06,77.57,168.35,86.61Z"/><path class="cls-10" d="M173.77,68.52q-2.72,9-5.42,18.09l-7-.12q-1.49-8.44-3-16.89a14.55,14.55,0,0,0,.74-2.65,15.61,15.61,0,0,0,.25-2.53l-.68-.71A10.14,10.14,0,0,0,163.91,66c1.8.18,3.33-.26,6-1.18.2.08.41.16.63.23a9.48,9.48,0,0,0,3.08.48Z"/><path class="cls-11" d="M176.6,53a23.73,23.73,0,0,1-1.48,7.84l-1.48,1.09.13,1.32a11.23,11.23,0,0,1-1.73.49,12.18,12.18,0,0,1-3.94.12,10.06,10.06,0,0,0,1.83,1c-2.69.92-4.22,1.36-6,1.18a10.14,10.14,0,0,1-5.23-2.26l-3-3.15q-.74-6.63-1.48-13.27a4.17,4.17,0,0,1,2.47-.84,4,4,0,0,1,2.09.6l1.72-2.17c.17,1.17.33,2.33.5,3.5q3.38-5.37,6.77-10.73a15.11,15.11,0,0,1,6.9,5.91C176.69,47,176.64,50.36,176.6,53Z"/><path class="cls-6" d="M155.66,60.56a17.8,17.8,0,0,0,3,3.15"/><circle class="cls-9" cx="159.73" cy="50.56" r="1"/><circle class="cls-9" cx="170.73" cy="50.56" r="1"/><path class="cls-12" d="M168.6,58a5.22,5.22,0,0,1-3.57,1.2,5.11,5.11,0,0,1-2.84-1.08"/><rect class="cls-13" x="189.73" y="34.56" width="54" height="24" rx="2.16"/><line class="cls-14" x1="194.73" y1="40.06" x2="220.73" y2="40.06"/><line class="cls-14" x1="194.73" y1="49.06" x2="221.73" y2="49.06"/><line class="cls-14" x1="194.73" y1="44.06" x2="220.73" y2="44.06"/><line class="cls-14" x1="193.73" y1="54.06" x2="220.73" y2="54.06"/><line class="cls-15" x1="95.73" y1="80.06" x2="248.73" y2="80.55"/><line class="cls-16" x1="95.73" y1="80.06" x2="174.73" y2="80.31"/><circle class="cls-17" cx="175.23" cy="80.06" r="1.5"/><path class="cls-18" d="M95.6,33l57.59.32"/></g></g></svg>