<svg xmlns="http://www.w3.org/2000/svg" viewBox="0 0 675.24 444.11"><defs><style>.cls-1{fill:#312783;}.cls-1,.cls-10,.cls-11,.cls-12,.cls-2,.cls-3,.cls-4,.cls-5,.cls-6,.cls-7,.cls-8,.cls-9{stroke:#1d1d1b;stroke-miterlimit:10;}.cls-2{fill:#fff;}.cls-3{fill:none;}.cls-4{fill:#74fdff;}.cls-5{fill:#ffe9c9;}.cls-6{fill:#1d1d1b;}.cls-7{fill:#bf5000;}.cls-8{fill:#8afff0;}.cls-10,.cls-9{fill:#e6007e;}.cls-9{stroke-width:0.75px;}.cls-10{stroke-width:0.5px;}.cls-11{fill:#ffe8bf;}.cls-12{fill:#ffeabf;}</style></defs><g id="Layer_2" data-name="Layer 2"><g id="Layer_2-2" data-name="Layer 2"><path class="cls-1" d="M497.43,309.07l51.86-.76a93.43,93.43,0,0,1,11.88,19.44c2.06,4.55,3.09,6.9,3.24,10.08.43,8.84-6.1,15.47-10.08,20.16-3,3.49.71-.24-18.72,35.28-6.62,12.11-15.05,27.19-25.2,44.52H58.09V353.67a131.73,131.73,0,0,0,15-17.92c6.74-9.66,8.63-15.12,13.94-16.64,3.7-1.06,9.73-.4,19.44,8.64a258.11,258.11,0,0,1,34.56-27.36c11.53-7.61,20.83-12.39,37.44-20.88,14.89-7.6,28.19-13.81,39.24-18.72a130.69,130.69,0,0,0,29.16,24.48c13.43,8.23,30.58,15.27,92.16,20.88a917.45,917.45,0,0,0,93.6,4.32C449.34,310.36,455.77,309.69,497.43,309.07Z"/><path class="cls-2" d="M237.47,285.35c39.85,13.48,72.29,18.91,94.68,21.37,47.14,5.17,77.88,6.77,77.88,6.77,22.53,1.18,43.48,1.58,43.7,4.63.15,2-8.56,4.31-13.65,5.33-8.84,1.78-15.45.75-21.29.21-7.43-.7-15.19-.25-30.71.64-20.09,1.16-19.95,3.34-42.09,4.86-13.92.95-16.39.25-26.42,1.71a148,148,0,0,0-27.44,6.7l-6,4.69q-1.36-4.69-2.74-9.41a13.58,13.58,0,0,0-8.83-2.44,13.44,13.44,0,0,0-6.64,2.5L241,324.5a54.51,54.51,0,0,1-3.49-39.15Z"/><path class="cls-2" d="M311.76,304Q302,310.3,291.19,316.6c-9.53,5.51-18.83,10.46-27.81,14.9h0"/><path class="cls-2" d="M322.9,305.59a93.84,93.84,0,0,0-.61,9.45,91.78,91.78,0,0,0,1.09,15.34"/><path class="cls-3" d="M435.4,402.18a647.56,647.56,0,0,1-79.2-4.32,648.22,648.22,0,0,1-67.68-11.52"/><path class="cls-4" d="M648.31,237.69l24.84,86.4-24.84-9.72-14,23.76-27-95Z"/><path class="cls-5" d="M233.05,145.14c6.18-5,19.9-16.25,40-19.44,17.86-2.85,25.44,3.1,34.56-3.24,11.42-7.95,6.88-22.37,15.12-38.88,5.48-11,17.31-24.27,45.36-33.48A458.65,458.65,0,0,1,471.73,89c25.86,13.49,42.49,25.39,65.88,42.12,30,21.49,33.7,27.5,35.64,31.32,16.26,32-6.53,71.07,4.32,76.68,6.47,3.35,14.31-10.71,29.16-8.64,13.32,1.85,21.54,15.17,24.84,20.52,2.12,3.43,13.27,21.5,6.48,43.2-7.55,24.1-30.84,32.25-34.56,33.48-29.61,9.78-54.56-10.53-56.16-11.88-49.56,2.08-90.53,1-120-.55C362.62,311.86,286,302.82,286,302.82s-52.8-8.39-75.6-40c-15.38-21.29-12.72-47-11.88-55.08C202.2,171.9,226.34,150.61,233.05,145.14Z"/><path class="cls-6" d="M371.84,123.77c-8.15-1.46-9.94-1.64-10-1.51-.12.58,34.29,1,48.6,21.6,1.7,2.43,8.18,12.42,5.76,24.48-2.45,12.25-12.5,18.82-16.2,21.24-13.45,8.81-28,7.3-34.92,6.48-16.8-2-49.26-12.22-50.76-32.76-1.2-16.52,17.86-36.93,47.52-41"/><path class="cls-2" d="M363.05,157.3c2.82-.58,2.51.53,9.26.41,6.42-.11,10.06-.18,12.34-2.57,2.55-2.66,2.6-7.42,1.44-10.8-3.21-9.37-18.84-11.88-28.08-11.52-4.06.16-22,.86-25.92,12.24-2,5.78.21,12.79,4.32,17.28,1.18,1.29,5.94,6.5,11.52,5.76C354.51,167.23,355.16,158.92,363.05,157.3Z"/><path class="cls-2" d="M369.6,181.58c-.22,1.1-.9,4.49-3.8,6.2-3.17,1.87-7.14.58-15.09-2-5.61-1.82-11.83-4.5-11.83-4.5h0s-1.75-2.62-1.4-4.6a4.66,4.66,0,0,1,2.38-2.85c3.72-2.27,7.3.24,13.64.2,7.85,0,10.21-4,13.39-2C369.85,173.8,370.19,178.64,369.6,181.58Z"/><path class="cls-2" d="M375.61,162.46c3.48-.6,7.73,1.54,8.16,4.8s-3.41,6.79-7.2,6.72c-3.14,0-6.71-2.46-6.72-5.76C369.84,165.15,373,162.93,375.61,162.46Z"/><path class="cls-6" d="M494.32,173c-8.16-1.46-9.94-1.64-10-1.51-.12.58,34.28,1,48.6,21.6,1.69,2.43,8.17,12.42,5.76,24.48-2.45,12.25-12.51,18.82-16.2,21.24-13.45,8.81-28,7.3-34.92,6.48-16.81-2-49.27-12.22-50.76-32.76-1.2-16.52,17.85-36.93,47.52-41"/><path class="cls-2" d="M485.52,206.54c2.83-.58,2.52.53,9.27.41,6.41-.11,10-.18,12.33-2.57,2.55-2.66,2.6-7.42,1.44-10.8-3.21-9.37-18.83-11.88-28.08-11.52-4.06.16-22,.86-25.92,12.24-2,5.78.21,12.79,4.32,17.28,1.19,1.29,5.94,6.5,11.52,5.76C477,216.47,477.63,208.16,485.52,206.54Z"/><path class="cls-2" d="M492.08,230.82c-.23,1.1-.91,4.49-3.81,6.2-3.16,1.87-7.14.58-15.08-2-5.61-1.82-11.83-4.5-11.83-4.5h0s-1.75-2.62-1.41-4.6a4.67,4.67,0,0,1,2.39-2.85c3.72-2.27,7.3.24,13.63.2,7.85-.05,10.21-4,13.4-2C492.33,223,492.67,227.88,492.08,230.82Z"/><path class="cls-2" d="M498.08,211.7c3.48-.6,7.74,1.54,8.16,4.8s-3.41,6.79-7.2,6.72c-3.13-.05-6.71-2.46-6.72-5.76C492.31,214.39,495.42,212.17,498.08,211.7Z"/><path class="cls-3" d="M324.06,122.43a75.77,75.77,0,0,1,26.24-18.25c16.55-6.82,49.37-13.12,67.72,6.73,11.27,12.2,11.81,28.57,11.52,36"/><path class="cls-3" d="M446.53,171.67a75.86,75.86,0,0,1,26.24-18.25c16.55-6.82,49.37-13.12,67.72,6.73,11.27,12.2,11.81,28.57,11.52,36"/><path class="cls-6" d="M435.39,86.52c-1.1,1-2.86,2.09-11,3.12a154.59,154.59,0,0,1-17.58,1.09h0C386,92.52,367.94,93.3,367.94,93.3c-17.33.75-27.47.5-34.79-5.1-1.59-1.22-5.25-4-5-7.68.24-4.17,5.3-6.61,5.52-6.72,4-1.88,8.21-.72,10.08-.24,6.68,1.7,13.73,1.61,27.84,1.44a91.64,91.64,0,0,0,24.24-2.88c1.91-.52,6.22-1.76,13.93-3.82,7.14-1.92,9.52-2.47,12.95-2.42s8,.18,12,3.36c1.14.9,4.48,3.64,4.8,8.16C439.84,82.57,436,86,435.39,86.52Z"/><path class="cls-6" d="M552.81,161.77a63.32,63.32,0,0,1-22.56-7,100.18,100.18,0,0,1-17-10.56A112.28,112.28,0,0,1,488,117.12a18.38,18.38,0,0,1,5.52-10.07,11.7,11.7,0,0,1,6.24-3.37c3.35-.47,6.26,1,8.64,2.65,7.55,5.11,9,10.8,14.4,17,3.36,3.9,9.52,7.48,21.84,14.64,7.17,4.18,12.65,6.85,16.56,13.44,1,1.66,3.57,6,1.92,8.65C562.61,160.9,561,162.59,552.81,161.77Z"/><path class="cls-7" d="M305.8,276.24c2.29,1.19,4.73,3.74,4.95,6.81.37,5-5.41,8.72-10.08,11.7s-12.63,8.07-17.82,4.68c-2.7-1.77-3.89-5.29-3.78-8.1.26-6.73,8-10.59,12.42-12.78S301.08,273.78,305.8,276.24Z"/><path class="cls-1" d="M333.23,75.27l-37.8-34.56c1.36-5.9,5.32-19,17.28-29.16,4.9-4.17,14.83-12.61,25.92-10.8,2.84.46,8.49,3.59,19.8,9.84,7.09,3.92,7.77,4.58,11.52,6.24,5.51,2.44,11.72,5.2,18.78,5.07,6.13-.12,9.18-2.35,15.78-5.07,10-4.14,18-5.22,29.28-6.72a132,132,0,0,1,36.48.48c5.27.7,24.72,3.53,49.8,15,17,7.78,48.77,22.75,73.44,56.16,2.19,3,19.42,26.61,23.76,47.52,3.3,15.9,4.32,22.68,4.32,22.68,1.55,10.34,1.2,11.78,2.76,15.6,3.45,8.47,10,13.23,17.76,18.72,14.89,10.54,19.1,7.88,25.2,15.14,5.62,6.68,9.61,17.91,6.12,28.3-5.53,16.43-27.32,23.49-40,18.36-6.4-2.6-6.77-6.83-13-10.8-8.29-5.32-21.19-6.46-41.76,1.8l-5.28-78.24c-6.54-6.21-15.35-14.19-26.19-23A436,436,0,0,0,363.47,50.43a61.88,61.88,0,0,0-30.24,24.84Z"/><path class="cls-8" d="M390.7,22.35A498.78,498.78,0,0,1,623.28,165a59.85,59.85,0,0,0,.72-13,60.61,60.61,0,0,0-3.24-16.56A351.4,351.4,0,0,0,511,43.65a347.89,347.89,0,0,0-89.28-32.76,102.09,102.09,0,0,0-31,11.46Z"/><path class="cls-6" d="M572.36,159.45l39.36,39.84a44.73,44.73,0,0,1,4.89,36.42,50.68,50.68,0,0,0-37.06,3.42q-2-19.17-3.84-38.88Q573.84,179.57,572.36,159.45Z"/><path class="cls-9" d="M7.36,350l7.69-.82,181-19.34c9.1-2,25.41-3.91,40.32,4.32,36.93,20.38,38.16,88.13,20.16,97.92-8.05,4.37-19.24-16.53-34.56-13-9.56,2.23-15.38,12.31-18.72,20H0"/><path class="cls-10" d="M27.52,382.67A590.93,590.93,0,0,0,127.6,374a589.91,589.91,0,0,0,94.32-24.48"/><path class="cls-10" d="M11.68,443.87c46.9-12.41,96-27.34,146.88-45.36q30.74-10.89,59.76-22.32"/><path class="cls-10" d="M234.16,377.63A24.52,24.52,0,0,1,239.92,405"/><path class="cls-11" d="M256.84,337.57c-4.41-.51-8.14,1.2-16.58,6.86-10.77,7.23-17.75,11.91-16.8,14.16.66,1.56,4.88,1.39,7.2,1,5.22-1,8.38-4.62,8.88-4.08.35.38-1,2.29-2.16,3.6-2.25,2.59-3.69,2.91-6,5-1.25,1.16-4.91,4.53-4.08,6.48.74,1.74,4.8,1.71,7.2,1.2a11.94,11.94,0,0,0,5.28-2.64,16.14,16.14,0,0,1-2.16,3.12c-2.1,2.39-3.75,2.83-3.6,3.6.22,1.14,4.1,1.9,7.55,1.18,1.88-.39,3-1.08,3.25-.7.47.62-1.69,3.13-3.12,4.56-2.22,2.22-3,2.14-3.84,3.6-1.16,2.09-1.21,5.29.24,6.24,1.84,1.21,5.55-1.58,6-1.92,2.3-1.76,2.37-3.2,4.08-3.6.69-.16,1.72-.16,4.56,1.44,4.62,2.61,4.61,4.14,6.48,4.56,4.35,1,10.72-5.84,12.72-13a19.57,19.57,0,0,0,.72-6l8.16-1a39.43,39.43,0,0,0-8.64-24.72l-3.6,1.68a13.88,13.88,0,0,0-4.8-7.92A13.43,13.43,0,0,0,256.84,337.57Z"/><path class="cls-12" d="M118.83,324.9H103c-.63-.64-7.59-7.46-17.52-5.76A20.41,20.41,0,0,0,72,328.26l-13.2,14.88a11.4,11.4,0,0,1-.66,4.19.46.46,0,0,0-.06.37c.19.62,2,.6,3.6.48l7.44-9.84a87.67,87.67,0,0,0-3.84,11c-.54,2-1,3.84,0,4.8s3.09.39,3.6.24c5.37-1.58,7.31-10.85,7.68-12.72-3.34,5.18-4.08,9.86-2.16,11.76a4.23,4.23,0,0,0,3.12,1c3.9-.2,7.57-5.87,9.55-13.84C82.83,347.79,82,354,84.51,356.34c1.57,1.42,4.07,1,4.32,1,6.51-1.17,6-12.15,13.2-14.64,2.09-.73,1.79.33,9.6,0,5.5-.23,8.29-.38,9.6-1.68C125.19,337.05,119.21,325.62,118.83,324.9Z"/></g></g></svg>