<svg xmlns="http://www.w3.org/2000/svg" viewBox="0 0 531.33 403.33"><defs><style>.cls-1{fill:#e30613;}.cls-2{fill:#fff;}.cls-3,.cls-4{fill:none;}.cls-3{stroke:#fff;stroke-miterlimit:10;stroke-width:15px;}</style></defs><g id="Layer_2" data-name="Layer 2"><g id="Layer_1-2" data-name="Layer 1"><rect class="cls-1" width="531.33" height="403.33"/><rect class="cls-2" x="98.92" y="103.33" width="44.16" height="211.67"/><rect class="cls-2" x="165.5" y="148.33" width="45.26" height="166.67"/><rect class="cls-2" x="230.83" y="171.67" width="47.61" height="143.33"/><line class="cls-3" x1="54.67" y1="63.33" x2="56.54" y2="346.67"/><line class="cls-3" x1="403.2" y1="345.13" x2="48.4" y2="345.13"/><path class="cls-2" d="M55.79,45.56,41.15,63.8H68Z"/><path class="cls-2" d="M420,346.33,401.8,331.69v26.88Z"/><path class="cls-4" d="M356.53,100a40.39,40.39,0,0,0-4.26,7.06L324.71,95a65.87,65.87,0,0,1,7.5-11.72Z"/><line class="cls-4" x1="332.21" y1="83.31" x2="292.65" y2="56.19"/><path class="cls-2" d="M341.86,96.41l-27.56-12a62.67,62.67,0,0,0-6.62,28.07c0,36.94,32.24,66.89,72,66.89a76.82,76.82,0,0,0,20.41-2.73l-7.94-25.06,9.12-4,14.11,23a70.61,70.61,0,0,0,22.29-18.46,64.37,64.37,0,0,0,7-10.88,62.62,62.62,0,0,0,7-28.76c0-36.95-32.24-66.91-72-66.91-23.73,0-44.78,10.67-57.88,27.12l24.33,16.67Z"/><path class="cls-1" d="M341.86,96.41a39.19,39.19,0,0,0-3.72,16.7c0,22.28,18.6,40.32,41.54,40.32a42.42,42.42,0,0,0,12.47-1.86l9.12-4a41.34,41.34,0,0,0,12.7-11.7,38.51,38.51,0,0,0,3.7-6.42,39.16,39.16,0,0,0,3.55-16.33c0-22.26-18.59-40.31-41.54-40.31a41.91,41.91,0,0,0-33.55,16.55Z"/><line class="cls-4" x1="400.09" y1="176.63" x2="392.15" y2="151.57"/><line class="cls-4" x1="415.38" y1="170.57" x2="401.27" y2="147.56"/><ellipse class="cls-1" cx="401.79" cy="256.74" rx="43.68" ry="38.24"/><path class="cls-1" d="M338.66,205.55l-8.17,13.57,48.37,23,3.84-7.21Z"/><path class="cls-1" d="M385.13,329.38l15.81,1q-.93-26.75-1.85-53.5l-8.17-.1Z"/><path class="cls-1" d="M468.06,118V102.16l-53.28,5.28.44,8.16Z"/><path class="cls-1" d="M425.88,42.25l-15-5.06q-6,26.09-12,52.17l7.87,2.2Q416.29,66.9,425.88,42.25Z"/></g></g></svg>